<svg width="743" height="160" viewBox="0 0 743 160" fill="none" xmlns="http://www.w3.org/2000/svg">
<g clip-path="url(#clip0_4433_83)">
<path d="M42.6722 128H8.49498V31.5883H42.9546C52.6523 31.5883 61.0004 33.5184 67.9991 37.3787C74.9977 41.2075 80.3801 46.7154 84.1462 53.9023C87.9436 61.0893 89.8424 69.6885 89.8424 79.7C89.8424 89.7429 87.9436 98.3735 84.1462 105.592C80.3801 112.81 74.9663 118.349 67.9049 122.21C60.8749 126.07 52.464 128 42.6722 128ZM28.8789 110.535H41.8248C47.8505 110.535 52.9191 109.468 57.0304 107.334C61.1731 105.168 64.2801 101.826 66.3514 97.3064C68.4541 92.7557 69.5055 86.8869 69.5055 79.7C69.5055 72.5758 68.4541 66.7541 66.3514 62.2348C64.2801 57.7155 61.1887 54.3888 57.0774 52.2547C52.9661 50.1206 47.8976 49.0535 41.8719 49.0535H28.8789V110.535ZM125.185 129.365C120.571 129.365 116.46 128.565 112.851 126.964C109.242 125.332 106.386 122.931 104.283 119.762C102.212 116.561 101.176 112.575 101.176 107.804C101.176 103.787 101.913 100.413 103.388 97.683C104.864 94.9526 106.872 92.7557 109.414 91.0924C111.956 89.429 114.844 88.1737 118.076 87.3263C121.34 86.4789 124.761 85.8826 128.339 85.5374C132.544 85.098 135.934 84.6901 138.507 84.3134C141.081 83.9055 142.948 83.3092 144.109 82.5246C145.27 81.74 145.851 80.5787 145.851 79.0409V78.7585C145.851 75.777 144.91 73.4703 143.026 71.8383C141.175 70.2063 138.539 69.3903 135.118 69.3903C131.509 69.3903 128.637 70.1906 126.503 71.7912C124.369 73.3604 122.956 75.3376 122.266 77.7228L103.718 76.2164C104.66 71.8226 106.511 68.0251 109.273 64.824C112.035 61.5914 115.597 59.1121 119.959 57.386C124.353 55.6285 129.437 54.7497 135.212 54.7497C139.229 54.7497 143.074 55.2205 146.745 56.162C150.449 57.1035 153.728 58.5629 156.584 60.5401C159.472 62.5172 161.747 65.0594 163.41 68.1664C165.074 71.242 165.905 74.9296 165.905 79.2292V128H146.887V117.973H146.322C145.161 120.232 143.607 122.225 141.661 123.951C139.715 125.646 137.377 126.98 134.647 127.953C131.917 128.894 128.762 129.365 125.185 129.365ZM130.928 115.525C133.878 115.525 136.483 114.944 138.743 113.783C141.002 112.59 142.775 110.99 144.062 108.981C145.349 106.973 145.992 104.697 145.992 102.155V94.4819C145.365 94.8899 144.502 95.2665 143.403 95.6117C142.336 95.9255 141.128 96.2237 139.778 96.5061C138.429 96.7572 137.079 96.9926 135.73 97.2123C134.38 97.4006 133.156 97.5732 132.058 97.7301C129.704 98.0753 127.648 98.6246 125.891 99.3778C124.133 100.131 122.768 101.151 121.795 102.438C120.822 103.693 120.336 105.262 120.336 107.145C120.336 109.876 121.324 111.963 123.302 113.406C125.31 114.819 127.852 115.525 130.928 115.525ZM219.925 55.6912V70.7556H176.38V55.6912H219.925ZM186.266 38.3672H206.32V105.78C206.32 107.632 206.603 109.075 207.168 110.111C207.732 111.115 208.517 111.822 209.521 112.23C210.557 112.638 211.75 112.842 213.099 112.842C214.041 112.842 214.982 112.763 215.924 112.606C216.865 112.418 217.587 112.277 218.089 112.182L221.243 127.106C220.239 127.419 218.827 127.78 217.006 128.188C215.186 128.628 212.974 128.894 210.369 128.989C205.536 129.177 201.299 128.534 197.658 127.058C194.049 125.583 191.24 123.292 189.232 120.185C187.223 117.078 186.234 113.155 186.266 108.416V38.3672ZM253.608 129.365C248.995 129.365 244.883 128.565 241.274 126.964C237.665 125.332 234.809 122.931 232.706 119.762C230.635 116.561 229.599 112.575 229.599 107.804C229.599 103.787 230.337 100.413 231.812 97.683C233.287 94.9526 235.296 92.7557 237.838 91.0924C240.38 89.429 243.267 88.1737 246.5 87.3263C249.764 86.4789 253.184 85.8826 256.762 85.5374C260.968 85.098 264.357 84.6901 266.931 84.3134C269.504 83.9055 271.371 83.3092 272.533 82.5246C273.694 81.74 274.274 80.5787 274.274 79.0409V78.7585C274.274 75.777 273.333 73.4703 271.45 71.8383C269.598 70.2063 266.962 69.3903 263.541 69.3903C259.932 69.3903 257.06 70.1906 254.926 71.7912C252.792 73.3604 251.38 75.3376 250.689 77.7228L232.141 76.2164C233.083 71.8226 234.935 68.0251 237.696 64.824C240.458 61.5914 244.02 59.1121 248.383 57.386C252.776 55.6285 257.861 54.7497 263.635 54.7497C267.652 54.7497 271.497 55.2205 275.169 56.162C278.872 57.1035 282.152 58.5629 285.008 60.5401C287.895 62.5172 290.17 65.0594 291.834 68.1664C293.497 71.242 294.329 74.9296 294.329 79.2292V128H275.31V117.973H274.745C273.584 120.232 272.03 122.225 270.085 123.951C268.139 125.646 265.801 126.98 263.07 127.953C260.34 128.894 257.186 129.365 253.608 129.365ZM259.351 115.525C262.301 115.525 264.906 114.944 267.166 113.783C269.426 112.59 271.199 110.99 272.486 108.981C273.772 106.973 274.416 104.697 274.416 102.155V94.4819C273.788 94.8899 272.925 95.2665 271.827 95.6117C270.759 95.9255 269.551 96.2237 268.202 96.5061C266.852 96.7572 265.503 96.9926 264.153 97.2123C262.804 97.4006 261.58 97.5732 260.481 97.7301C258.127 98.0753 256.072 98.6246 254.314 99.3778C252.557 100.131 251.192 101.151 250.219 102.438C249.246 103.693 248.759 105.262 248.759 107.145C248.759 109.876 249.748 111.963 251.725 113.406C253.734 114.819 256.276 115.525 259.351 115.525Z" fill="black"/>
<path d="M344.976 128H310.799V31.5883H345.259C354.956 31.5883 363.305 33.5184 370.303 37.3787C377.302 41.2075 382.684 46.7154 386.45 53.9023C390.248 61.0893 392.146 69.6885 392.146 79.7C392.146 89.7429 390.248 98.3735 386.45 105.592C382.684 112.81 377.27 118.349 370.209 122.21C363.179 126.07 354.768 128 344.976 128ZM331.183 110.535H344.129C350.155 110.535 355.223 109.468 359.335 107.334C363.477 105.168 366.584 101.826 368.656 97.3064C370.758 92.7557 371.81 86.8869 371.81 79.7C371.81 72.5758 370.758 66.7541 368.656 62.2348C366.584 57.7155 363.493 54.3888 359.382 52.2547C355.27 50.1206 350.202 49.0535 344.176 49.0535H331.183V110.535ZM427.489 129.365C422.875 129.365 418.764 128.565 415.155 126.964C411.546 125.332 408.69 122.931 406.587 119.762C404.516 116.561 403.48 112.575 403.48 107.804C403.48 103.787 404.218 100.413 405.693 97.683C407.168 94.9526 409.176 92.7557 411.718 91.0924C414.26 89.429 417.148 88.1737 420.38 87.3263C423.644 86.4789 427.065 85.8826 430.643 85.5374C434.848 85.098 438.238 84.6901 440.811 84.3134C443.385 83.9055 445.252 83.3092 446.413 82.5246C447.575 81.74 448.155 80.5787 448.155 79.0409V78.7585C448.155 75.777 447.214 73.4703 445.331 71.8383C443.479 70.2063 440.843 69.3903 437.422 69.3903C433.813 69.3903 430.941 70.1906 428.807 71.7912C426.673 73.3604 425.261 75.3376 424.57 77.7228L406.022 76.2164C406.964 71.8226 408.815 68.0251 411.577 64.824C414.339 61.5914 417.901 59.1121 422.263 57.386C426.657 55.6285 431.741 54.7497 437.516 54.7497C441.533 54.7497 445.378 55.2205 449.05 56.162C452.753 57.1035 456.033 58.5629 458.889 60.5401C461.776 62.5172 464.051 65.0594 465.715 68.1664C467.378 71.242 468.21 74.9296 468.21 79.2292V128H449.191V117.973H448.626C447.465 120.232 445.911 122.225 443.965 123.951C442.02 125.646 439.682 126.98 436.951 127.953C434.221 128.894 431.067 129.365 427.489 129.365ZM433.232 115.525C436.182 115.525 438.787 114.944 441.047 113.783C443.306 112.59 445.08 110.99 446.366 108.981C447.653 106.973 448.296 104.697 448.296 102.155V94.4819C447.669 94.8899 446.806 95.2665 445.707 95.6117C444.64 95.9255 443.432 96.2237 442.082 96.5061C440.733 96.7572 439.383 96.9926 438.034 97.2123C436.684 97.4006 435.46 97.5732 434.362 97.7301C432.008 98.0753 429.952 98.6246 428.195 99.3778C426.437 100.131 425.072 101.151 424.099 102.438C423.126 103.693 422.64 105.262 422.64 107.145C422.64 109.876 423.629 111.963 425.606 113.406C427.614 114.819 430.156 115.525 433.232 115.525ZM483.392 128V116.043L518.793 72.2149V71.6971H484.616V55.6912H542.943V68.7313L509.707 111.476V111.994H544.167V128H483.392ZM559.125 128V116.043L594.526 72.2149V71.6971H560.349V55.6912H618.676V68.7313L585.441 111.476V111.994H619.9V128H559.125ZM655.29 31.5883V128H635.235V31.5883H655.29ZM704.308 129.412C696.87 129.412 690.467 127.906 685.101 124.893C679.765 121.849 675.654 117.549 672.767 111.994C669.879 106.408 668.436 99.8015 668.436 92.1751C668.436 84.7371 669.879 78.2093 672.767 72.5915C675.654 66.9738 679.718 62.5957 684.959 59.4573C690.232 56.3189 696.415 54.7497 703.507 54.7497C708.278 54.7497 712.719 55.5186 716.83 57.0564C720.973 58.5629 724.582 60.8382 727.657 63.8825C730.764 66.9267 733.181 70.7556 734.907 75.369C736.633 79.9511 737.496 85.3177 737.496 91.469V96.9769H676.439V84.5488H718.619C718.619 81.6615 717.991 79.1037 716.736 76.8754C715.48 74.6472 713.739 72.9054 711.51 71.65C709.313 70.3633 706.756 69.7199 703.837 69.7199C700.793 69.7199 698.094 70.426 695.74 71.8383C693.417 73.2192 691.597 75.0865 690.279 77.4403C688.961 79.7628 688.286 82.3519 688.255 85.2079V97.024C688.255 100.602 688.914 103.693 690.232 106.298C691.581 108.903 693.48 110.911 695.928 112.324C698.376 113.736 701.279 114.442 704.637 114.442C706.865 114.442 708.905 114.128 710.757 113.501C712.609 112.873 714.194 111.931 715.512 110.676C716.83 109.421 717.834 107.883 718.525 106.063L737.073 107.287C736.131 111.743 734.201 115.635 731.282 118.961C728.395 122.257 724.66 124.83 720.078 126.682C715.527 128.502 710.271 129.412 704.308 129.412Z" fill="url(#paint0_linear_4433_83)"/>
</g>
<defs>
<linearGradient id="paint0_linear_4433_83" x1="688.453" y1="1.65151e-05" x2="-336.66" y2="260.876" gradientUnits="userSpaceOnUse">
<stop stop-color="#7FE9FF"/>
<stop offset="0.145" stop-color="#55B4C8"/>
<stop offset="0.445" stop-color="#7FE9FF"/>
<stop offset="1" stop-color="#2BACC7"/>
</linearGradient>
<clipPath id="clip0_4433_83">
<rect width="743" height="160" fill="white"/>
</clipPath>
</defs>
</svg>
